<svg xmlns="http://www.w3.org/2000/svg" xmlns:xlink="http://www.w3.org/1999/xlink" version="1.1" data-diagram-type="DESCRIPTION" style="width:272px;height:116px;background:#FFFFFF;" width="272px" height="116px" viewBox="0 0 272 116" zoomAndPan="magnify" preserveAspectRatio="none" contentStyleType="text/css"><?plantuml $version$?><defs/><g font-family="sans-serif" lengthAdjust="spacing"><!--entity System\nController\nbox--><g class="entity" data-qualified-name="System.nController.nbox" id="ent0001" data-source-line="2"><polygon points="16,22.5,26,12.5,116.725,12.5,116.725,74.5,106.725,84.5,16,84.5,16,22.5" fill="#F1F1F1" style="stroke:#181818;stroke-width:0.5;stroke-linejoin:miter;stroke-miterlimit:10;"/><line x1="106.725" y1="22.5" x2="116.725" y2="12.5" style="stroke:#181818;stroke-width:0.5;"/><line x1="16" y1="22.5" x2="106.725" y2="22.5" style="stroke:#181818;stroke-width:0.5;"/><line x1="106.725" y1="22.5" x2="106.725" y2="84.5" style="stroke:#181818;stroke-width:0.5;"/><text x="31" y="43.389" fill="#000" font-size="14" textLength="46.637">System</text><text x="31" y="57.389" fill="#000" font-size="14" textLength="60.725">Controller</text><text x="31" y="71.389" fill="#000" font-size="14" textLength="22.575">box</text></g><!--entity DB--><g class="entity" data-qualified-name="DB" id="ent0002" data-source-line="3"><path d="M151.26,16 C151.26,6 199.366,6 199.366,6 C199.366,6 247.473,6 247.473,16 L247.473,81 C247.473,91 199.366,91 199.366,91 C199.366,91 151.26,91 151.26,81 L151.26,16" style="stroke:#181818;stroke-width:0.5;" fill="#F1F1F1"/><path d="M151.26,16 C151.26,26 199.366,26 199.366,26 C199.366,26 247.473,26 247.473,16" style="stroke:#181818;stroke-width:0.5;" fill="none"/><text x="161.26" y="40.889" fill="#000" font-size="14"> </text><text x="161.26" y="54.889" fill="#000" font-size="14" textLength="76.213">PostgreSQL</text><text x="161.26" y="68.889" fill="#000" font-size="14" textLength="57.575">database</text><text x="161.26" y="82.889" fill="#000" font-size="14"> </text></g><?plantuml-src DSen3eCm30NGdLDOEKAFK1WPgB9wCM0XrEGRnQvKRWyBwzFpxuv3cbHQh1u6HUGuYzAlbbS7MvLIFZsqCdf3D2j56sEsV-fM2Pd5xyAOp6DhcZyZut568d4QtXS0?></g></svg>