<svg xmlns="http://www.w3.org/2000/svg" xmlns:xlink="http://www.w3.org/1999/xlink" version="1.1" data-diagram-type="YAML" style="width:248px;height:172px;background:#FFFFFF;" width="248px" height="172px" viewBox="0 0 248 172" zoomAndPan="magnify" preserveAspectRatio="none" contentStyleType="text/css"><?plantuml $version$?><defs/><g font-family="sans-serif" lengthAdjust="spacing"><rect x="10" y="63" width="10" height="44" fill="#F0E68C" style="stroke:#F0E68C;stroke-width:2;stroke-dasharray:10,5;"/><text x="15" y="79" fill="#F00" font-size="18" textLength="14.85" font-weight="700" font-family="Helvetica">   </text><line x1="10" y1="85" x2="20" y2="85" style="stroke:#000;stroke-width:0.5;stroke-dasharray:1,5;"/><text x="15" y="101" fill="#F00" font-size="18" textLength="14.85" font-weight="700" font-family="Helvetica">   </text><rect x="10" y="63" width="10" height="44" fill="none" style="stroke:#ADD8E6;stroke-width:2;stroke-dasharray:10,5;"/><rect x="57" y="10" width="175.925" height="66" fill="#F0E68C" style="stroke:#F0E68C;stroke-width:2;stroke-dasharray:10,5;"/><text x="62" y="26" fill="#F00" font-size="18" textLength="45" font-weight="700" font-family="Helvetica">name</text><text x="117" y="26" fill="#F00" font-size="18" textLength="110.925" font-weight="700" font-family="Helvetica">Mark McGwire</text><line x1="112" y1="10" x2="112" y2="32" style="stroke:#000;stroke-width:0.5;stroke-dasharray:1,5;"/><line x1="57" y1="32" x2="232.925" y2="32" style="stroke:#000;stroke-width:0.5;stroke-dasharray:1,5;"/><text x="62" y="48" fill="#F00" font-size="18" textLength="15.975" font-weight="700" font-family="Helvetica">hr</text><text x="117" y="48" fill="#F00" font-size="18" textLength="20.025" font-weight="700" font-family="Helvetica">65</text><line x1="112" y1="32" x2="112" y2="54" style="stroke:#000;stroke-width:0.5;stroke-dasharray:1,5;"/><line x1="57" y1="54" x2="232.925" y2="54" style="stroke:#000;stroke-width:0.5;stroke-dasharray:1,5;"/><text x="62" y="70" fill="#F00" font-size="18" textLength="29.025" font-weight="700" font-family="Helvetica">avg</text><text x="117" y="70" fill="#F00" font-size="18" textLength="45" font-weight="700" font-family="Helvetica">0.278</text><line x1="112" y1="54" x2="112" y2="76" style="stroke:#000;stroke-width:0.5;stroke-dasharray:1,5;"/><rect x="57" y="10" width="175.925" height="66" fill="none" style="stroke:#ADD8E6;stroke-width:2;stroke-dasharray:10,5;"/><rect x="61.5" y="94" width="167.038" height="66" fill="#F0E68C" style="stroke:#F0E68C;stroke-width:2;stroke-dasharray:10,5;"/><text x="66.5" y="110" fill="#F00" font-size="18" textLength="45" font-weight="700" font-family="Helvetica">name</text><text x="121.5" y="110" fill="#F00" font-size="18" textLength="102.038" font-weight="700" font-family="Helvetica">Sammy Sosa</text><line x1="116.5" y1="94" x2="116.5" y2="116" style="stroke:#000;stroke-width:0.5;stroke-dasharray:1,5;"/><line x1="61.5" y1="116" x2="228.538" y2="116" style="stroke:#000;stroke-width:0.5;stroke-dasharray:1,5;"/><text x="66.5" y="132" fill="#F00" font-size="18" textLength="15.975" font-weight="700" font-family="Helvetica">hr</text><text x="121.5" y="132" fill="#F00" font-size="18" textLength="20.025" font-weight="700" font-family="Helvetica">63</text><line x1="116.5" y1="116" x2="116.5" y2="138" style="stroke:#000;stroke-width:0.5;stroke-dasharray:1,5;"/><line x1="61.5" y1="138" x2="228.538" y2="138" style="stroke:#000;stroke-width:0.5;stroke-dasharray:1,5;"/><text x="66.5" y="154" fill="#F00" font-size="18" textLength="29.025" font-weight="700" font-family="Helvetica">avg</text><text x="121.5" y="154" fill="#F00" font-size="18" textLength="45" font-weight="700" font-family="Helvetica">0.288</text><line x1="116.5" y1="138" x2="116.5" y2="160" style="stroke:#000;stroke-width:0.5;stroke-dasharray:1,5;"/><rect x="61.5" y="94" width="167.038" height="66" fill="none" style="stroke:#ADD8E6;stroke-width:2;stroke-dasharray:10,5;"/><path d="M8,74 L21,74 C30.513,74 40.317,73.124 50.045,71.667" style="stroke:#008000;stroke-width:2;stroke-dasharray:2,5;" fill="none"/><path d="M50.534,74.634 L52.271,71.3 L49.556,68.699 L57.464,70.444 L50.534,74.634" fill="#008000"/><ellipse cx="8" cy="74" rx="3" ry="3" fill="#008000" style="stroke:#008000;stroke-width:1;"/><path d="M8,96 L21,96 C31.867,96 43.113,97.143 54.194,98.99" style="stroke:#008000;stroke-width:2;stroke-dasharray:2,5;" fill="none"/><path d="M53.64,102.045 L56.485,99.406 L54.748,95.935 L61.832,100.376 L53.64,102.045" fill="#008000"/><ellipse cx="8" cy="96" rx="3" ry="3" fill="#008000" style="stroke:#008000;stroke-width:1;"/><?plantuml-src bL9DJm8n43tJNp47hk22GJU46A96J1GFuX-OtPtiDjjjpRH0LiD_jxGRa3tfeKtVcu_tEktIEcJNOgF4mhfMqPquWaU99MC3tm90cuB20U0Uyth5PgkB1wCCWv9bvJArfH1zbPhw_E39QFU63S4pgHqvcMFaOY9J4U56VX5CqWuSZK1cb0_s9LyghAMN6xn7ZZKn92VzZqhcjIPhONhYOhj9Cfe5oj8dCZhVArvgS5cNZ6TdEcfcofiuars_hjr1n8NCPl_FEPLCfF_WVHgq3k8W5bVTAm6CGfBsivt36hc6TRxQIuuQ5S_zVXCjugxqA1bFRzDUtGQRfeMDiVYxwlgoAat5adGHFeaOxeYjD7hu0m00?></g></svg>