<svg xmlns="http://www.w3.org/2000/svg" xmlns:xlink="http://www.w3.org/1999/xlink" version="1.1" data-diagram-type="ACTIVITY" style="width:345px;height:287px;background:#FFFFFF;" width="345px" height="287px" viewBox="0 0 345 287" zoomAndPan="magnify" preserveAspectRatio="none" contentStyleType="text/css"><?plantuml $version$?><defs/><g font-family="sans-serif" lengthAdjust="spacing"><polygon points="73.078,89.056,97.622,89.056,109.622,101.056,97.622,113.056,73.078,113.056,61.078,101.056,73.078,89.056" fill="#F1F1F1" style="stroke:#181818;stroke-width:0.5;stroke-linejoin:miter;stroke-miterlimit:10;"/><text x="89.35" y="121.611" fill="#000" font-size="11" textLength="17.119">yes</text><text x="73.078" y="104.111" fill="#000" font-size="11" textLength="24.544">c==0</text><rect x="41" y="144.056" width="88.7" height="32" fill="#F1F1F1" style="stroke:#181818;stroke-width:0.5;" rx="12.5" ry="12.5"/><text x="51" y="163.389" fill="#000" font-size="12" textLength="68.7">do something</text><polygon points="171.778,89.056,196.322,89.056,208.322,101.056,196.322,113.056,171.778,113.056,159.778,101.056,171.778,89.056" fill="#F1F1F1" style="stroke:#181818;stroke-width:0.5;stroke-linejoin:miter;stroke-miterlimit:10;"/><text x="171.778" y="104.111" fill="#000" font-size="11" textLength="24.544">c==1</text><rect x="139.7" y="133.056" width="88.7" height="32" fill="#F1F1F1" style="stroke:#181818;stroke-width:0.5;" rx="12.5" ry="12.5"/><text x="149.7" y="152.389" fill="#000" font-size="12" textLength="68.7">do something</text><polygon points="260.4,89.056,284.944,89.056,296.944,101.056,284.944,113.056,260.4,113.056,248.4,101.056,260.4,89.056" fill="#F1F1F1" style="stroke:#181818;stroke-width:0.5;stroke-linejoin:miter;stroke-miterlimit:10;"/><text x="260.4" y="104.111" fill="#000" font-size="11" textLength="24.544">c==2</text><polygon points="176.391,15,201.553,15,213.553,27,201.553,39,176.391,39,164.391,27,176.391,15" fill="#F1F1F1" style="stroke:#181818;stroke-width:0.5;stroke-linejoin:miter;stroke-miterlimit:10;"/><text x="192.972" y="47.556" fill="#000" font-size="11" textLength="17.119">yes</text><text x="176.391" y="30.056" fill="#000" font-size="11" textLength="25.163">a==b</text><ellipse cx="188.972" cy="257.056" rx="10" ry="10" fill="none" style="stroke:#222;stroke-width:1.5;"/><line x1="182.785" y1="250.868" x2="195.159" y2="263.243" style="stroke:#222;stroke-width:2.5;"/><line x1="195.159" y1="250.868" x2="182.785" y2="263.243" style="stroke:#222;stroke-width:2.5;"/><line x1="85.35" y1="176.056" x2="85.35" y2="201.056" style="stroke:#181818;stroke-width:1;"/><line x1="85.35" y1="201.056" x2="29" y2="201.056" style="stroke:#181818;stroke-width:1;"/><polygon points="39,197.056,29,201.056,39,205.056,35,201.056" fill="#181818" style="stroke:#181818;stroke-width:1;stroke-linejoin:miter;stroke-miterlimit:10;"/><line x1="184.05" y1="165.056" x2="184.05" y2="190.056" style="stroke:#181818;stroke-width:1;"/><line x1="184.05" y1="190.056" x2="29" y2="190.056" style="stroke:#181818;stroke-width:1;"/><polygon points="39,186.056,29,190.056,39,194.056,35,190.056" fill="#181818" style="stroke:#181818;stroke-width:1;stroke-linejoin:miter;stroke-miterlimit:10;"/><line x1="85.35" y1="113.056" x2="85.35" y2="144.056" style="stroke:#181818;stroke-width:1;"/><polygon points="81.35,134.056,85.35,144.056,89.35,134.056,85.35,138.056" fill="#181818" style="stroke:#181818;stroke-width:1;stroke-linejoin:miter;stroke-miterlimit:10;"/><line x1="184.05" y1="113.056" x2="184.05" y2="133.056" style="stroke:#181818;stroke-width:1;"/><polygon points="180.05,123.056,184.05,133.056,188.05,123.056,184.05,127.056" fill="#181818" style="stroke:#181818;stroke-width:1;stroke-linejoin:miter;stroke-miterlimit:10;"/><line x1="272.672" y1="113.056" x2="272.672" y2="133.056" style="stroke:#181818;stroke-width:1;"/><line x1="272.672" y1="133.056" x2="29" y2="133.056" style="stroke:#181818;stroke-width:1;"/><polygon points="39,129.056,29,133.056,39,137.056,35,133.056" fill="#181818" style="stroke:#181818;stroke-width:1;stroke-linejoin:miter;stroke-miterlimit:10;"/><line x1="109.622" y1="101.056" x2="159.778" y2="101.056" style="stroke:#181818;stroke-width:1;"/><polygon points="149.778,97.056,159.778,101.056,149.778,105.056,153.778,101.056" fill="#181818" style="stroke:#181818;stroke-width:1;stroke-linejoin:miter;stroke-miterlimit:10;"/><line x1="208.322" y1="101.056" x2="248.4" y2="101.056" style="stroke:#181818;stroke-width:1;"/><polygon points="238.4,97.056,248.4,101.056,238.4,105.056,242.4,101.056" fill="#181818" style="stroke:#181818;stroke-width:1;stroke-linejoin:miter;stroke-miterlimit:10;"/><line x1="188.972" y1="39" x2="188.972" y2="64.056" style="stroke:#181818;stroke-width:1;"/><line x1="188.972" y1="64.056" x2="85.35" y2="64.056" style="stroke:#181818;stroke-width:1;"/><line x1="85.35" y1="64.056" x2="85.35" y2="89.056" style="stroke:#181818;stroke-width:1;"/><polygon points="81.35,79.056,85.35,89.056,89.35,79.056,85.35,83.056" fill="#181818" style="stroke:#181818;stroke-width:1;stroke-linejoin:miter;stroke-miterlimit:10;"/><line x1="296.944" y1="101.056" x2="310.944" y2="101.056" style="stroke:#181818;stroke-width:1;"/><polygon points="306.944,69.056,310.944,59.056,314.944,69.056,310.944,65.056" fill="#181818" style="stroke:#181818;stroke-width:1;stroke-linejoin:miter;stroke-miterlimit:10;"/><line x1="310.944" y1="27" x2="310.944" y2="101.056" style="stroke:#181818;stroke-width:1;"/><line x1="310.944" y1="27" x2="213.553" y2="27" style="stroke:#181818;stroke-width:1;"/><polygon points="223.553,23,213.553,27,223.553,31,219.553,27" fill="#181818" style="stroke:#181818;stroke-width:1;stroke-linejoin:miter;stroke-miterlimit:10;"/><line x1="164.391" y1="27" x2="29" y2="27" style="stroke:#181818;stroke-width:1;"/><polygon points="25,153.556,29,163.556,33,153.556,29,157.556" fill="#181818" style="stroke:#181818;stroke-width:1;stroke-linejoin:miter;stroke-miterlimit:10;"/><line x1="29" y1="27" x2="29" y2="227.056" style="stroke:#181818;stroke-width:1;"/><line x1="29" y1="227.056" x2="188.972" y2="227.056" style="stroke:#181818;stroke-width:1;"/><line x1="188.972" y1="227.056" x2="188.972" y2="247.056" style="stroke:#181818;stroke-width:1;"/><polygon points="184.972,237.056,188.972,247.056,192.972,237.056,188.972,241.056" fill="#181818" style="stroke:#181818;stroke-width:1;stroke-linejoin:miter;stroke-miterlimit:10;"/><?plantuml-src Ay_8p4bLq518jBLDKj1Ko2nMqAXCBTRaoam32YRRsXe01KioKlEWmWfWO9MIhr2SdvjQaf6PbsuD5KmgIatC1hDJSufJGVg1sWqXkadMPuIY3qb9Nafc6XUGL2W7EHp40W00?></g></svg>