<svg xmlns="http://www.w3.org/2000/svg" xmlns:xlink="http://www.w3.org/1999/xlink" version="1.1" data-diagram-type="DESCRIPTION" style="width:349px;height:114px;background:#FFFFFF;" width="349px" height="114px" viewBox="0 0 349 114" zoomAndPan="magnify" preserveAspectRatio="none" contentStyleType="text/css"><?plantuml $version$?><defs/><g font-family="sans-serif" lengthAdjust="spacing"><!--cluster A--><g class="cluster" data-qualified-name="A" id="ent0001" data-source-line="3"><path d="M8.5,6 L18.862,6 A3.75,3.75 0 0 1 21.362,8.5 L28.362,26 L155.5,26 A2.5,2.5 0 0 1 158,28.5 L158,96.5 A2.5,2.5 0 0 1 155.5,99 L8.5,99 A2.5,2.5 0 0 1 6,96.5 L6,8.5 A2.5,2.5 0 0 1 8.5,6" style="stroke:#000;stroke-width:1.5;" fill="none"/><line x1="6" y1="26" x2="28.362" y2="26" style="stroke:#000;stroke-width:1.5;"/><text x="10" y="18.889" fill="#000" font-size="14" font-weight="700">A</text></g><!--cluster B--><g class="cluster" data-qualified-name="B" id="ent0003" data-source-line="6"><path d="M184.5,6 L194.863,6 A3.75,3.75 0 0 1 197.363,8.5 L204.363,26 L331.5,26 A2.5,2.5 0 0 1 334,28.5 L334,96.5 A2.5,2.5 0 0 1 331.5,99 L184.5,99 A2.5,2.5 0 0 1 182,96.5 L182,8.5 A2.5,2.5 0 0 1 184.5,6" style="stroke:#000;stroke-width:1.5;" fill="none"/><line x1="182" y1="26" x2="204.363" y2="26" style="stroke:#000;stroke-width:1.5;"/><text x="186" y="18.889" fill="#000" font-size="14" font-weight="700">B</text></g><!--entity Component1--><g class="entity" data-qualified-name="A.Component1" id="ent0002" data-source-line="4"><rect x="21.93" y="39" width="120.15" height="44" fill="#F1F1F1" style="stroke:#181818;stroke-width:0.5;" rx="2.5" ry="2.5"/><rect x="122.08" y="44" width="15" height="10" fill="#F1F1F1" style="stroke:#181818;stroke-width:0.5;"/><rect x="120.08" y="46" width="4" height="2" fill="#F1F1F1" style="stroke:#181818;stroke-width:0.5;"/><rect x="120.08" y="50" width="4" height="2" fill="#F1F1F1" style="stroke:#181818;stroke-width:0.5;"/><text x="36.93" y="69.889" fill="#000" font-size="14" textLength="80.15">Component1</text></g><!--entity Component2--><g class="entity" data-qualified-name="B.Component2" id="ent0004" data-source-line="7"><rect x="197.93" y="39" width="120.15" height="44" fill="#F1F1F1" style="stroke:#181818;stroke-width:0.5;" rx="2.5" ry="2.5"/><rect x="298.08" y="44" width="15" height="10" fill="#F1F1F1" style="stroke:#181818;stroke-width:0.5;"/><rect x="296.08" y="46" width="4" height="2" fill="#F1F1F1" style="stroke:#181818;stroke-width:0.5;"/><rect x="296.08" y="50" width="4" height="2" fill="#F1F1F1" style="stroke:#181818;stroke-width:0.5;"/><text x="212.93" y="69.889" fill="#000" font-size="14" textLength="80.15">Component2</text></g><!--link Component1 to Component2--><g class="link" data-entity-1="ent0002" data-entity-2="ent0004" id="lnk5" data-source-line="10" data-link-type="dependency"><path d="M142.5,61 C160.85,61 174.2,61 192.54,61" style="stroke:#181818;stroke-width:1;" fill="none" id="Component1-to-Component2"/><polygon points="197.54,61,188.54,57,192.54,61,188.54,65,197.54,61" fill="#181818" style="stroke:#181818;stroke-width:1;stroke-linejoin:miter;stroke-miterlimit:10;"/></g><?plantuml-src KomeIapFJLJ8o2_AhChFAqdCySdCItLABIbFJSrpoKnBIorApIi9I4pEJanFTSp9oIzFJU7YAe3m5HmLghcIytCBylE0YXISOIn3hbgu4YViIeo0IhWG6XHqYpBJCqfqxP1L0000?></g></svg>