<svg xmlns="http://www.w3.org/2000/svg" xmlns:xlink="http://www.w3.org/1999/xlink" version="1.1" data-diagram-type="SEQUENCE" style="width:150px;height:178px;background:#FFFFFF;" width="150px" height="178px" viewBox="0 0 150 178" zoomAndPan="magnify" preserveAspectRatio="none" contentStyleType="text/css"><?plantuml $version$?><defs/><g font-family="sans-serif" lengthAdjust="spacing"><g><title>Alice</title><rect x="28.725" y="39" width="8" height="99" fill="#000" fill-opacity="0"/><line x1="32.225" y1="39" x2="32.225" y2="138" style="stroke:#181818;stroke-width:0.5;stroke-dasharray:5,5;"/></g><g><title>Bob</title><rect x="116.994" y="39" width="8" height="99" fill="#000" fill-opacity="0"/><line x1="120.494" y1="39" x2="120.494" y2="138" style="stroke:#181818;stroke-width:0.5;stroke-dasharray:5,5;"/></g><rect x="10" y="10" width="44.45" height="28" fill="#E2E2F0" style="stroke:#181818;stroke-width:0.5;" rx="2.5" ry="2.5"/><text x="17" y="27.889" fill="#000" font-size="14" textLength="30.45">Alice</text><rect x="101.025" y="10" width="38.938" height="28" fill="#E2E2F0" style="stroke:#181818;stroke-width:0.5;" rx="2.5" ry="2.5"/><text x="108.025" y="27.889" fill="#000" font-size="14" textLength="24.938">Bob</text><rect x="10" y="138" width="44.45" height="28" fill="#E2E2F0" style="stroke:#181818;stroke-width:0.5;" rx="2.5" ry="2.5"/><text x="17" y="155.889" fill="#000" font-size="14" textLength="30.45">Alice</text><rect x="101.025" y="138" width="38.938" height="28" fill="#E2E2F0" style="stroke:#181818;stroke-width:0.5;" rx="2.5" ry="2.5"/><text x="108.025" y="155.889" fill="#000" font-size="14" textLength="24.938">Bob</text><polygon points="108.494,62,118.494,66,108.494,70,112.494,66" fill="#181818" style="stroke:#181818;stroke-width:1;stroke-linejoin:miter;stroke-miterlimit:10;"/><line x1="32.225" y1="66" x2="114.494" y2="66" style="stroke:#181818;stroke-width:1;"/><text x="39.225" y="61.111" fill="#000" font-size="13" textLength="18.038">foo</text><polygon points="108.494,89,118.494,93,108.494,97,112.494,93" fill="#181818" style="stroke:#181818;stroke-width:1;stroke-linejoin:miter;stroke-miterlimit:10;"/><line x1="32.225" y1="93" x2="114.494" y2="93" style="stroke:#181818;stroke-width:1;"/><text x="39.225" y="88.111" fill="#000" font-size="13" textLength="15.275">ijkl</text><polygon points="108.494,116,118.494,120,108.494,124,112.494,120" fill="#181818" style="stroke:#181818;stroke-width:1;stroke-linejoin:miter;stroke-miterlimit:10;"/><line x1="32.225" y1="120" x2="114.494" y2="120" style="stroke:#181818;stroke-width:1;"/><text x="39.225" y="115.111" fill="#000" font-size="13" textLength="64.269">foo-ensuite</text><?plantuml-src KrSiA4ejACfFJYqkpYyAC-9IpCpALh1LK4hBprVYSip9J4vLqBLJSCfFKh1I04fX4Sh18gQRcbTScbcI2W00?></g></svg>