<svg xmlns="http://www.w3.org/2000/svg" xmlns:xlink="http://www.w3.org/1999/xlink" version="1.1" data-diagram-type="DESCRIPTION" style="width:218px;height:169px;background:#FFFFFF;" width="218px" height="169px" viewBox="0 0 218 169" zoomAndPan="magnify" preserveAspectRatio="none" contentStyleType="text/css"><?plantuml $version$?><defs/><g font-family="sans-serif" lengthAdjust="spacing"><!--entity bidon--><g class="entity" data-qualified-name="bidon" id="ent0001" data-source-line="1"><rect x="7" y="111" width="74.3" height="44" fill="#F1F1F1" style="stroke:#181818;stroke-width:0.5;" rx="2.5" ry="2.5"/><rect x="61.3" y="116" width="15" height="10" fill="#F1F1F1" style="stroke:#181818;stroke-width:0.5;"/><rect x="59.3" y="118" width="4" height="2" fill="#F1F1F1" style="stroke:#181818;stroke-width:0.5;"/><rect x="59.3" y="122" width="4" height="2" fill="#F1F1F1" style="stroke:#181818;stroke-width:0.5;"/><text x="22" y="141.889" fill="#000" font-size="14" textLength="34.3">bidon</text></g><!--entity bidon2--><g class="entity" data-qualified-name="bidon2" id="ent0002" data-source-line="2"><rect x="119.11" y="7" width="82.087" height="44" fill="#F1F1F1" style="stroke:#181818;stroke-width:0.5;" rx="2.5" ry="2.5"/><rect x="181.198" y="12" width="15" height="10" fill="#F1F1F1" style="stroke:#181818;stroke-width:0.5;"/><rect x="179.198" y="14" width="4" height="2" fill="#F1F1F1" style="stroke:#181818;stroke-width:0.5;"/><rect x="179.198" y="18" width="4" height="2" fill="#F1F1F1" style="stroke:#181818;stroke-width:0.5;"/><text x="134.11" y="37.889" fill="#000" font-size="14" textLength="42.087">bidon2</text></g><g class="entity" data-qualified-name="N1" id="ent0003" data-source-line="3"><path d="M116.38,121.5 L116.38,144.5 L203.924,144.5 L203.924,131.5 L193.924,121.5 L116.38,121.5" style="stroke:#181818;stroke-width:0.5;" fill="#FEFFDD"/><path d="M193.924,121.5 L193.924,131.5 L203.924,131.5 L193.924,121.5" style="stroke:#181818;stroke-width:1;" fill="#FEFFDD"/><text x="122.38" y="136.611" fill="#000" font-size="13" textLength="66.544">This is a note</text></g><!--link bidon to N1--><g class="link" data-entity-1="ent0001" data-entity-2="ent0003" id="lnk4" data-source-line="4" data-link-type="association"><path d="M81.76,133 C93.19,133 104.62,133 116.06,133" style="stroke:#181818;stroke-width:1;stroke-dasharray:7,7;" fill="none" id="bidon-N1"/></g><!--link bidon2 to N1--><g class="link" data-entity-1="ent0002" data-entity-2="ent0003" id="lnk5" data-source-line="5" data-link-type="association"><path d="M160.15,51.13 C160.15,72.49 160.15,104.64 160.15,121.23" style="stroke:#181818;stroke-width:1;stroke-dasharray:7,7;" fill="none" id="bidon2-N1"/></g><?plantuml-src IyxFBSZFIyqhKKZAJCdFuqf6vHjnvUMNf2eeXMHa5Yi0KQ82YA-aa5Yiu6V81LQYe0Td6YdeWJW0?></g></svg>