<svg xmlns="http://www.w3.org/2000/svg" xmlns:xlink="http://www.w3.org/1999/xlink" version="1.1" data-diagram-type="CLASS" style="width:339px;height:184px;background:#FFFFFF;" width="339px" height="184px" viewBox="0 0 339 184" zoomAndPan="magnify" preserveAspectRatio="none" contentStyleType="text/css"><?plantuml $version$?><defs/><g font-family="sans-serif" lengthAdjust="spacing"><!--class test--><g class="entity" data-qualified-name="test" id="ent0001" data-source-line="3"><rect x="257.65" y="74.21" width="67.125" height="76" fill="#F1F1F1" style="stroke:#181818;stroke-width:0.5;" rx="2.5" ry="2.5"/><ellipse cx="278.337" cy="90.21" rx="11" ry="11" fill="#ADD1B2" style="stroke:#181818;stroke-width:1;"/><path d="M280.81,96.353 Q280.229,96.652 279.59,96.801 Q278.951,96.951 278.245,96.951 Q275.738,96.951 274.418,95.299 Q273.099,93.647 273.099,90.526 Q273.099,87.397 274.418,85.745 Q275.738,84.093 278.245,84.093 Q278.951,84.093 279.598,84.242 Q280.246,84.392 280.81,84.69 L280.81,87.413 Q280.179,86.832 279.586,86.562 Q278.992,86.293 278.361,86.293 Q277.017,86.293 276.332,87.359 Q275.647,88.426 275.647,90.526 Q275.647,92.618 276.332,93.684 Q277.017,94.751 278.361,94.751 Q278.992,94.751 279.586,94.481 Q280.179,94.211 280.81,93.63 Z " fill="#000"/><text x="293.601" y="94.099" fill="#000" font-size="14" textLength="22.488">test</text><line x1="258.65" y1="106.21" x2="323.775" y2="106.21" style="stroke:#181818;stroke-width:0.5;"/><text x="263.65" y="121.099" fill="#000" font-size="14" textLength="55.125">member:</text><text x="263.65" y="135.099" fill="#000" font-size="14" textLength="34.213">string</text><line x1="258.65" y1="142.21" x2="323.775" y2="142.21" style="stroke:#181818;stroke-width:0.5;"/></g><g class="entity" data-qualified-name="GMN2" id="ent0003" data-source-line="9"><path d="M6,55.21 L6,169.21 L88.425,169.21 L88.425,65.21 L78.425,55.21 L6,55.21" style="stroke:#181818;stroke-width:0.5;" fill="#FEFFDD"/><path d="M78.425,55.21 L78.425,65.21 L88.425,65.21 L78.425,55.21" style="stroke:#181818;stroke-width:1;" fill="#FEFFDD"/><text x="12" y="70.321" fill="#000" font-size="13" textLength="20.231">this</text><text x="32.231" y="70.321" fill="#000" font-size="13"> </text><text x="32.231" y="70.321" fill="#000" font-size="13" textLength="24.619">long</text><text x="12" y="83.321" fill="#000" font-size="13" textLength="25.269">note</text><text x="37.269" y="83.321" fill="#000" font-size="13"> </text><text x="37.269" y="83.321" fill="#000" font-size="13" textLength="20.881">text</text><text x="12" y="96.321" fill="#000" font-size="13" textLength="9.425">is</text><text x="12" y="109.321" fill="#000" font-size="13" textLength="56.387">controlled</text><text x="12" y="122.321" fill="#000" font-size="13" textLength="44.037">through</text><text x="12" y="135.321" fill="#000" font-size="13" textLength="18.038">the</text><text x="12" y="148.321" fill="#000" font-size="13" textLength="61.425">wrapWidth</text><text x="12" y="161.321" fill="#000" font-size="13" textLength="59.15">paramater</text></g><path d="M123.39,63.21 L123.39,151.21 A0,0 0 0 0 123.39,151.21 L223.04,151.21 A0,0 0 0 0 223.04,151.21 L223.04,111.21 L263.65,124.21 L223.04,103.21 L223.04,73.21 L213.04,63.21 L123.39,63.21 A0,0 0 0 0 123.39,63.21" style="stroke:#181818;stroke-width:0.5;" fill="#FEFFDD"/><path d="M213.04,63.21 L213.04,73.21 L223.04,73.21 L213.04,63.21" style="stroke:#181818;stroke-width:0.5;" fill="#FEFFDD"/><text x="129.39" y="78.321" fill="#000" font-size="13" textLength="78.65">unfortunately,</text><text x="129.39" y="91.321" fill="#000" font-size="13" textLength="21.613">that</text><text x="151.003" y="91.321" fill="#000" font-size="13"> </text><text x="151.003" y="91.321" fill="#000" font-size="13" textLength="9.425">is</text><text x="160.428" y="91.321" fill="#000" font-size="13"> </text><text x="160.428" y="91.321" fill="#000" font-size="13" textLength="18.038">not</text><text x="129.39" y="104.321" fill="#000" font-size="13" textLength="18.038">the</text><text x="147.428" y="104.321" fill="#000" font-size="13"> </text><text x="147.428" y="104.321" fill="#000" font-size="13" textLength="27.463">case</text><text x="129.39" y="117.321" fill="#000" font-size="13" textLength="15.113">for</text><text x="144.503" y="117.321" fill="#000" font-size="13"> </text><text x="144.503" y="117.321" fill="#000" font-size="13" textLength="20.231">this</text><text x="129.39" y="130.321" fill="#000" font-size="13" textLength="23.888">kind</text><text x="153.278" y="130.321" fill="#000" font-size="13"> </text><text x="153.278" y="130.321" fill="#000" font-size="13" textLength="10.806">of</text><text x="129.39" y="143.321" fill="#000" font-size="13" textLength="25.269">note</text><!--link GMN2 to test--><g class="link" data-entity-1="ent0003" data-entity-2="ent0001" id="lnk4" data-source-line="9" data-link-type="association"><path d="M85.18,54.79 C96.08,42.82 109.05,31.84 123.71,25.21 C163.8,7.08 183.13,6 222.71,25.21 C243.81,35.45 260.36,55.69 271.9,74.07" style="stroke:#181818;stroke-width:1;stroke-dasharray:7,7;" fill="none" id="GMN2-test"/></g><?plantuml-src JOz13i9024Ntd883k73ZfXTnFNPeEt4A3T2eCTwzT1gJhaX--E-1FGilITECBqtBlMIVy7O5w6ioGoVpBymqFqWxDDV28_m0WCK9AmqEYEXJCQp28xROwUqOII_iAhLIZWsLTPnYqidJlCb9WJYtxWcCCZHzrnrwt4qh3wA-SfJgvnAur4nHQkW-6M5i71V5PtcdDF3Vi040?></g></svg>