<svg xmlns="http://www.w3.org/2000/svg" xmlns:xlink="http://www.w3.org/1999/xlink" version="1.1" data-diagram-type="SEQUENCE" style="width:133px;height:215px;background:#FFFFFF;" width="133px" height="215px" viewBox="0 0 133 215" zoomAndPan="magnify" preserveAspectRatio="none" contentStyleType="text/css"><?plantuml $version$?><defs/><g font-family="sans-serif" lengthAdjust="spacing"><g><title>Bob</title><rect x="21.969" y="98" width="8" height="18" fill="#000" fill-opacity="0"/><line x1="25.469" y1="98" x2="25.469" y2="116" style="stroke:#181818;stroke-width:0.5;stroke-dasharray:5,5;"/></g><g><title>..myStyle..</title><rect x="83.119" y="98" width="8" height="18" fill="#000" fill-opacity="0"/><line x1="86.619" y1="98" x2="86.619" y2="116" style="stroke:#181818;stroke-width:0.5;stroke-dasharray:5,5;"/></g><text x="10" y="94.889" fill="#000" font-size="14" textLength="24.938">Bob</text><ellipse cx="25.469" cy="32.5" rx="8" ry="8" fill="#00F" style="stroke:#181818;stroke-width:0.5;"/><path d="M25.469,40.5 L25.469,67.5 M12.469,48.5 L38.469,48.5 M25.469,67.5 L12.469,82.5 M25.469,67.5 L38.469,82.5" style="stroke:#181818;stroke-width:0.5;" fill="none"/><text x="50.938" y="80.889" fill="#000" font-size="14" textLength="65.363" font-style="italic">«myStyle»</text><text x="68.394" y="94.889" fill="#000" font-size="14" textLength="30.45">Sally</text><ellipse cx="86.619" cy="18.5" rx="8" ry="8" fill="#F00" style="stroke:#181818;stroke-width:0.5;"/><path d="M86.619,26.5 L86.619,53.5 M73.619,34.5 L99.619,34.5 M86.619,53.5 L73.619,68.5 M86.619,53.5 L99.619,68.5" style="stroke:#181818;stroke-width:0.5;" fill="none"/><text x="10" y="126.889" fill="#000" font-size="14" textLength="24.938">Bob</text><ellipse cx="25.469" cy="138.5" rx="8" ry="8" fill="#00F" style="stroke:#181818;stroke-width:0.5;"/><path d="M25.469,146.5 L25.469,173.5 M12.469,154.5 L38.469,154.5 M25.469,173.5 L12.469,188.5 M25.469,173.5 L38.469,188.5" style="stroke:#181818;stroke-width:0.5;" fill="none"/><text x="50.938" y="126.889" fill="#000" font-size="14" textLength="65.363" font-style="italic">«myStyle»</text><text x="68.394" y="140.889" fill="#000" font-size="14" textLength="30.45">Sally</text><ellipse cx="86.619" cy="152.5" rx="8" ry="8" fill="#F00" style="stroke:#181818;stroke-width:0.5;"/><path d="M86.619,160.5 L86.619,187.5 M73.619,168.5 L99.619,168.5 M86.619,187.5 L73.619,202.5 M86.619,187.5 L99.619,202.5" style="stroke:#181818;stroke-width:0.5;" fill="none"/><?plantuml-src ioakgSn9jUDI08BYrCBIrBpaL9VCnFIYn5o5Qh2eWa9YSab-4PodeE2Kc9oTNfHVcfVYd9y3b77AAKs5IjP2QBtSoc2GkNWq1QMcS46rr7BPw4ET0R7AAJy9oWfEpCcfLB2nWPfdPmS0?></g></svg>