<svg xmlns="http://www.w3.org/2000/svg" xmlns:xlink="http://www.w3.org/1999/xlink" version="1.1" data-diagram-type="YAML" style="width:193px;height:85px;background:#FFFFFF;" width="193px" height="85px" viewBox="0 0 193 85" zoomAndPan="magnify" preserveAspectRatio="none" contentStyleType="text/css"><?plantuml $version$?><defs/><g font-family="sans-serif" lengthAdjust="spacing"><rect x="10" y="10" width="86.238" height="54" fill="#F1F1F1" style="stroke:#F1F1F1;stroke-width:1.5;" rx="5" ry="5"/><text x="15" y="22.889" fill="#000" font-size="14" textLength="23.275" font-weight="700">fruit</text><text x="55.363" y="22.889" fill="#000" font-size="14" textLength="35.875">Apple</text><line x1="50.363" y1="10" x2="50.363" y2="28" style="stroke:#000;stroke-width:1;"/><line x1="10" y1="28" x2="96.238" y2="28" style="stroke:#000;stroke-width:1;"/><text x="15" y="40.889" fill="#000" font-size="14" textLength="24.938" font-weight="700">size</text><text x="55.363" y="40.889" fill="#000" font-size="14" textLength="35.788">Large</text><line x1="50.363" y1="28" x2="50.363" y2="46" style="stroke:#000;stroke-width:1;"/><line x1="10" y1="46" x2="96.238" y2="46" style="stroke:#000;stroke-width:1;"/><text x="15" y="58.889" fill="#000" font-size="14" textLength="30.362" font-weight="700">color</text><text x="55.363" y="58.889" fill="#000" font-size="14" textLength="11.55">   </text><line x1="50.363" y1="46" x2="50.363" y2="64" style="stroke:#000;stroke-width:1;"/><rect x="10" y="10" width="86.238" height="54" fill="none" style="stroke:#000;stroke-width:1.5;" rx="5" ry="5"/><rect x="133" y="37" width="48.85" height="36" fill="#F1F1F1" style="stroke:#F1F1F1;stroke-width:1.5;" rx="5" ry="5"/><text x="138" y="49.889" fill="#000" font-size="14" textLength="25.725">Red</text><line x1="133" y1="55" x2="181.85" y2="55" style="stroke:#000;stroke-width:1;"/><text x="138" y="67.889" fill="#000" font-size="14" textLength="38.85">Green</text><rect x="133" y="37" width="48.85" height="36" fill="none" style="stroke:#000;stroke-width:1.5;" rx="5" ry="5"/><path d="M83.5,55 L96.5,55 C106.019,55 116.38,55 125.794,55" style="stroke:#000;stroke-width:1;stroke-dasharray:3,3;" fill="none"/><path d="M125.794,58.058 L128.088,55 L125.794,51.942 L133.44,55 L125.794,58.058" fill="#000"/><ellipse cx="83.5" cy="55" rx="3" ry="3" fill="#000" style="stroke:#000;stroke-width:1;"/><?plantuml-src SoWkIImggKpCpU5AAohDBB5IS2meo4dbAiwiIhLIy4aiIa_bIixFoI-oubBGLGXAJG5HxaMfgNbS3gbvAM2DN2fbgKN5cVbvAW00?></g></svg>