<svg xmlns="http://www.w3.org/2000/svg" xmlns:xlink="http://www.w3.org/1999/xlink" version="1.1" data-diagram-type="SEQUENCE" style="width:196px;height:152px;background:#FFFFFF;" width="196px" height="152px" viewBox="0 0 196 152" zoomAndPan="magnify" preserveAspectRatio="none" contentStyleType="text/css"><?plantuml $version$?><defs/><g font-family="sans-serif" lengthAdjust="spacing"><g><title>QACT</title><rect x="32.969" y="53" width="8" height="45" fill="#000" fill-opacity="0"/><line x1="36.469" y1="53" x2="36.469" y2="98" style="stroke:#181818;stroke-width:0.5;stroke-dasharray:5,5;"/></g><g><title>DIAG</title><rect x="93.544" y="53" width="8" height="45" fill="#000" fill-opacity="0"/><line x1="97.044" y1="53" x2="97.044" y2="98" style="stroke:#181818;stroke-width:0.5;stroke-dasharray:5,5;"/></g><g><title>Target</title><rect x="154.863" y="53" width="8" height="45" fill="#000" fill-opacity="0"/><line x1="158.363" y1="53" x2="158.363" y2="98" style="stroke:#181818;stroke-width:0.5;stroke-dasharray:5,5;"/></g><rect x="10" y="24" width="52.938" height="28" fill="#E2E2F0" style="stroke:#181818;stroke-width:0.5;" rx="2.5" ry="2.5"/><text x="17" y="41.889" fill="#000" font-size="14" textLength="38.938">QACT</text><rect x="72.938" y="24" width="48.213" height="28" fill="#E2E2F0" style="stroke:#181818;stroke-width:0.5;" rx="2.5" ry="2.5"/><text x="79.938" y="41.889" fill="#000" font-size="14" textLength="34.213">DIAG</text><rect x="131.15" y="10" width="54.425" height="42" fill="#E2E2F0" style="stroke:#181818;stroke-width:0.5;" rx="2.5" ry="2.5"/><text x="138.15" y="27.889" fill="#000" font-size="14" textLength="40.425">Target</text><text x="141.256" y="41.889" fill="#000" font-size="14" textLength="34.213">DIAG</text><rect x="10" y="98" width="52.938" height="28" fill="#E2E2F0" style="stroke:#181818;stroke-width:0.5;" rx="2.5" ry="2.5"/><text x="17" y="115.889" fill="#000" font-size="14" textLength="38.938">QACT</text><rect x="72.938" y="98" width="48.213" height="28" fill="#E2E2F0" style="stroke:#181818;stroke-width:0.5;" rx="2.5" ry="2.5"/><text x="79.938" y="115.889" fill="#000" font-size="14" textLength="34.213">DIAG</text><rect x="131.15" y="98" width="54.425" height="42" fill="#E2E2F0" style="stroke:#181818;stroke-width:0.5;" rx="2.5" ry="2.5"/><text x="138.15" y="115.889" fill="#000" font-size="14" textLength="40.425">Target</text><text x="141.256" y="129.889" fill="#000" font-size="14" textLength="34.213">DIAG</text><polygon points="85.044,76,95.044,80,85.044,84,89.044,80" fill="#181818" style="stroke:#181818;stroke-width:1;stroke-linejoin:miter;stroke-miterlimit:10;"/><line x1="36.469" y1="80" x2="91.044" y2="80" style="stroke:#181818;stroke-width:1;"/><text x="43.469" y="75.111" fill="#000" font-size="13" textLength="27.544">hello</text><?plantuml-src AqWiAibCpYn8p2jH27Hq3b58B5Pmv2f04dNnT7G7YJgXY2g591QbfvR4v86abK3opboE2hfs2auALWePgJav-G00?></g></svg>